<svg width="24" height="24" viewBox="0 0 24 24" fill="none" xmlns="http://www.w3.org/2000/svg">
<path d="M17 6.75H7C4.65279 6.75 2.75 8.65279 2.75 11V17C2.75 19.3472 4.65279 21.25 7 21.25H17C19.3472 21.25 21.25 19.3472 21.25 17V11C21.25 8.65279 19.3472 6.75 17 6.75Z" stroke="#1B1B1B" stroke-width="1.5"/>
<path fill-rule="evenodd" clip-rule="evenodd" d="M7.85158 9C8.38955 9 8.73211 8.3671 8.60267 7.84493C8.53559 7.57434 8.5 7.29133 8.5 7C8.5 5.067 10.067 3.5 12 3.5C13.933 3.5 15.5 5.067 15.5 7C15.5 7.29133 15.4644 7.57434 15.3973 7.84493C15.2679 8.3671 15.6105 9 16.1484 9C16.413 9 16.6563 8.84454 16.7406 8.59377C16.9088 8.0932 17 7.55725 17 7C17 4.23858 14.7614 2 12 2C9.23858 2 7 4.23858 7 7C7 7.55725 7.09116 8.0932 7.25938 8.59377C7.34365 8.84454 7.58703 9 7.85158 9Z" fill="#1B1B1B"/>
</svg>
